<svg width="30" height="30" viewBox="0 0 30 30" fill="none" xmlns="http://www.w3.org/2000/svg">
<g clip-path="url(#clip0_6_83)">
<path fill-rule="evenodd" clip-rule="evenodd" d="M15.5122 13.4333C13.7228 15.08 11.9763 16.6385 11.9763 16.6385C11.7347 16.8538 11.7141 17.2241 11.9294 17.4657C12.1447 17.7068 12.515 17.7279 12.7566 17.5126C12.7566 17.5126 17.3319 13.4287 19.2855 11.4751C19.5837 11.1774 19.6733 10.9492 19.6893 10.8544C19.73 10.6134 19.6455 10.4434 19.5239 10.3198C19.4348 10.2286 19.3025 10.1421 19.0995 10.1333C19.0001 10.1292 18.7792 10.1679 18.4815 10.308C16.7787 11.1089 10.0077 15.6197 10.0077 15.6197C9.73836 15.799 9.66574 16.1631 9.84498 16.432C10.0247 16.7014 10.3889 16.774 10.6577 16.5948C10.6577 16.5948 13.1779 14.9136 15.5122 13.4333Z" fill="#FCF4F4"/>
<path fill-rule="evenodd" clip-rule="evenodd" d="M15 1.28906C7.4325 1.28906 1.28906 7.4325 1.28906 15C1.28906 22.5675 7.4325 28.7109 15 28.7109C22.5675 28.7109 28.7109 22.5675 28.7109 15C28.7109 7.4325 22.5675 1.28906 15 1.28906ZM15 2.46094C21.9206 2.46094 27.5391 8.07938 27.5391 15C27.5391 21.9206 21.9206 27.5391 15 27.5391C8.07938 27.5391 2.46094 21.9206 2.46094 15C2.46094 8.07938 8.07938 2.46094 15 2.46094Z" fill="#FCF4F4"/>
<path fill-rule="evenodd" clip-rule="evenodd" d="M9.86248 16.5711L11.1161 20.6493C11.1208 20.6643 11.1259 20.6792 11.1316 20.6936C11.265 21.0284 11.3989 21.2231 11.4947 21.3153C11.6678 21.4822 11.8455 21.5208 11.9928 21.5167C12.1998 21.5105 12.5336 21.3869 12.6659 20.896C12.6752 20.86 12.6819 20.8234 12.6845 20.7863L12.874 18.176L17.8263 21.8185C18.3352 22.2048 18.7926 22.2867 19.1392 22.1811C19.4966 22.0719 19.8428 21.7443 20.0065 21.047C20.0076 21.0428 20.0086 21.0387 20.0091 21.0346L22.4536 9.51636C22.5993 8.90293 22.5175 8.44453 22.3181 8.1767C22.0869 7.86509 21.6496 7.6534 20.9058 7.85427C20.8857 7.85942 20.8657 7.86611 20.8466 7.87384L6.48885 13.4421C6.4667 13.4509 6.44507 13.4612 6.42395 13.472C5.74356 13.8372 5.59214 14.2549 5.59008 14.5253C5.5875 14.8894 5.84297 15.2417 6.27664 15.4158C6.28952 15.421 6.3024 15.4261 6.31579 15.4303L9.86248 16.5711ZM21.3519 8.95907C21.3462 9.04251 21.3349 9.15582 21.3122 9.25111C21.3107 9.25626 21.3096 9.26141 21.3086 9.26656L18.8647 20.7832C18.8441 20.8682 18.8034 20.9656 18.7761 21.0264C18.7112 20.9944 18.6076 20.9403 18.533 20.8832C18.5299 20.8811 18.5273 20.879 18.5242 20.877L12.7133 16.6036C12.5418 16.4774 12.3147 16.4542 12.121 16.5433C11.9273 16.6329 11.7975 16.8204 11.7821 17.0331L11.6765 18.484L10.8926 15.935C10.8365 15.7522 10.6943 15.6079 10.512 15.5492L7.11567 14.4563L21.237 8.97916C21.2751 8.9704 21.3153 8.9637 21.3519 8.95907Z" fill="#FCF4F4"/>
<path fill-rule="evenodd" clip-rule="evenodd" d="M12.377 21.3707L14.9245 19.1709C15.1691 18.9597 15.1964 18.5894 14.9852 18.3448C14.7735 18.1001 14.4032 18.0728 14.1586 18.284L11.6116 20.4838C11.3664 20.695 11.3396 21.0653 11.5508 21.31C11.762 21.5551 12.1323 21.5819 12.377 21.3707Z" fill="#FCF4F4"/>
</g>
<defs>
<clipPath id="clip0_6_83">
<rect width="30" height="30" fill="white"/>
</clipPath>
</defs>
</svg>
