<svg width="30" height="26" viewBox="0 0 30 26" fill="none" xmlns="http://www.w3.org/2000/svg">
<g clip-path="url(#clip0_6_95)">
<path fill-rule="evenodd" clip-rule="evenodd" d="M26.3347 0.5C28.3577 0.5 30 1.86865 30 3.55439V22.4456C30 24.1313 28.3576 25.5 26.3347 25.5H20.0964V16.0803H23.9987L24.7412 12.0461H20.0964V9.42808C20.0964 8.32441 20.7452 7.24858 22.8257 7.24858H24.9375V3.81401C24.9375 3.81401 23.0209 3.54146 21.1886 3.54146C17.3631 3.54146 14.8628 5.47354 14.8628 8.97134V12.0461H10.6104V16.0803H14.8628V25.5H3.66527C1.64238 25.5 0 24.1313 0 22.4456V3.55439C0 1.86865 1.64232 0.5 3.66527 0.5L26.3347 0.5Z" fill="#FCF4F4"/>
</g>
<defs>
<clipPath id="clip0_6_95">
<rect width="30" height="25" fill="white" transform="translate(0 0.5)"/>
</clipPath>
</defs>
</svg>
