<svg width="30" height="28" viewBox="0 0 30 28" fill="none" xmlns="http://www.w3.org/2000/svg">
<path d="M14.9206 8.36426C11.2169 8.36426 8.14813 11.1216 8.14813 14.5562C8.14813 17.9909 11.164 20.7482 14.9206 20.7482C18.6772 20.7482 21.6931 17.9425 21.6931 14.5562C21.6931 11.17 18.6243 8.36426 14.9206 8.36426ZM14.9206 18.523C12.5397 18.523 10.582 16.7331 10.582 14.5562C10.582 12.3794 12.5397 10.5895 14.9206 10.5895C17.3016 10.5895 19.2592 12.3794 19.2592 14.5562C19.2592 16.7331 17.3016 18.523 14.9206 18.523Z" fill="#FCF4F4"/>
<path d="M21.9577 9.62191C22.8051 9.62191 23.4921 8.99382 23.4921 8.21903C23.4921 7.44425 22.8051 6.81616 21.9577 6.81616C21.1103 6.81616 20.4233 7.44425 20.4233 8.21903C20.4233 8.99382 21.1103 9.62191 21.9577 9.62191Z" fill="#FCF4F4"/>
<path d="M25.9259 4.59104C24.5503 3.28491 22.5926 2.60767 20.3704 2.60767H9.47091C4.86773 2.60767 1.79895 5.41341 1.79895 9.62203V19.5389C1.79895 21.619 2.53969 23.4089 4.02117 24.715C5.44974 25.9727 7.35451 26.6016 9.52382 26.6016H20.3175C22.5926 26.6016 24.4974 25.9244 25.873 24.715C27.3016 23.4573 28.0423 21.6674 28.0423 19.5873V9.62203C28.0423 7.59028 27.3016 5.84878 25.9259 4.59104ZM25.7143 19.5873C25.7143 21.0869 25.1323 22.2963 24.1799 23.1186C23.2275 23.941 21.9048 24.3764 20.3175 24.3764H9.52382C7.93652 24.3764 6.61376 23.941 5.66138 23.1186C4.709 22.2479 4.23281 21.0385 4.23281 19.5389V9.62203C4.23281 8.17078 4.709 6.96141 5.66138 6.09066C6.56085 5.26829 7.93652 4.83291 9.52382 4.83291H20.4233C22.0106 4.83291 23.3333 5.26829 24.2857 6.13903C25.1852 7.00978 25.7143 8.21915 25.7143 9.62203V19.5873Z" fill="#FCF4F4"/>
</svg>
